<svg width="400" height="400" viewBox="0 0 400 400" fill="none" xmlns="http://www.w3.org/2000/svg">
<path d="M109.927 200.649C110.206 198.508 111.151 196.28 112.352 194.935C113.897 193.204 115.044 192.379 116.739 191.779C120.355 190.499 124.287 191.367 127.153 194.076C129.084 195.902 130.093 197.785 130.738 200.768C131.108 202.475 130.728 205.039 129.783 207.214C129.375 208.153 129.094 208.536 127.701 210.045C126.298 211.565 125.951 211.863 125.005 212.364C123.134 213.355 122.035 213.647 120.176 213.647C117.756 213.647 115.368 212.802 113.593 211.32C112.322 210.258 111.389 208.86 110.559 206.772C110.017 205.409 109.703 202.371 109.927 200.649Z" fill="#E07A3F"/>
<path d="M130.125 109.143C130.346 106.177 131.736 103.54 134.003 101.785C135.669 100.496 137.213 99.9888 139.441 100C141.719 100.012 143.229 100.494 145.062 101.795C147.098 103.24 148.697 105.566 149.158 107.754C149.239 108.136 149.361 108.67 149.431 108.941C149.576 109.505 149.493 112.169 149.302 113.101C148.921 114.951 148.305 116.121 146.934 117.602C145.405 119.253 144.065 120.095 142.015 120.695C141.075 120.97 137.743 121.002 136.758 120.746C134.943 120.274 132.74 118.629 131.701 116.971C131.048 115.929 130.49 114.542 130.256 113.378C130.075 112.483 130.017 110.594 130.125 109.143Z" fill="#E07A3F"/>
<path d="M122.902 236.561C123.294 234.36 124.174 232.916 126.043 231.41C127.501 230.235 128.938 229.756 131.009 229.756C132.619 229.756 133.499 229.965 134.778 230.65C135.823 231.209 137.237 232.436 137.795 233.269C139.169 235.315 139.82 238.577 139.249 240.549C139.143 240.914 138.991 241.432 138.911 241.7C138.756 242.219 138.098 243.392 137.701 243.856C137.278 244.353 135.944 245.543 135.417 245.895C133.907 246.904 131.671 247.413 129.981 247.132C126.531 246.558 123.985 244.252 123.061 240.866C122.782 239.843 122.702 237.686 122.902 236.561Z" fill="#E07A3F"/>
<path d="M156.842 290.306C156.917 290.115 157.058 289.76 157.155 289.516C157.357 289.009 158.169 288.209 158.824 287.871C159.101 287.728 159.754 287.611 160.529 287.564C161.708 287.494 161.829 287.512 162.492 287.864C163.271 288.279 163.945 289.045 164.346 289.973C164.735 290.872 164.711 292.337 164.293 293.242C163.625 294.688 163.064 295.209 161.686 295.663C160.519 296.049 159.337 295.84 158.309 295.067C157.163 294.204 156.349 291.562 156.842 290.306Z" fill="#E07A3F"/>
<path d="M130.957 266.539C131.34 265.369 132.259 264.502 133.602 264.046C134.259 263.823 134.42 263.815 135.048 263.979C136.15 264.266 136.708 264.736 137.147 265.746C137.843 267.346 137.557 269.229 136.45 270.338C135.96 270.829 135.799 270.905 135.061 270.99C132.901 271.242 131.591 270.564 131.018 268.899C130.714 268.016 130.697 267.337 130.957 266.539Z" fill="#E07A3F"/>
<path d="M145.77 248.865C146.36 247.572 147.073 247.053 148.46 246.909C149.999 246.748 151.063 247.308 151.756 248.643C152.096 249.298 152.153 249.546 152.151 250.379C152.147 252.61 150.709 254.258 148.767 254.257C147.871 254.257 146.887 253.826 146.333 253.192C145.446 252.176 145.182 250.153 145.77 248.865Z" fill="#E07A3F"/>
<path d="M106.527 228.715C107.024 227.05 107.901 226.26 109.479 226.059C111.893 225.75 113.726 228.239 112.927 230.738C112.685 231.493 112.469 231.779 111.674 232.396C111.13 232.82 110.944 232.883 110.12 232.928C108.539 233.015 107.52 232.42 106.876 231.033C106.406 230.021 106.316 229.423 106.527 228.715Z" fill="#E07A3F"/>
<path d="M119.258 135.264C119.828 133.779 120.639 132.983 122.194 132.384C123.465 131.894 124.583 131.939 125.643 132.52C126.812 133.161 127.477 133.917 127.942 135.13C128.404 136.338 128.441 137.277 128.071 138.446C127.555 140.074 126.444 141.254 124.782 141.936C123.713 142.375 123.133 142.334 121.794 141.724C120.448 141.111 119.772 140.365 119.263 138.93C118.753 137.492 118.751 136.586 119.258 135.264Z" fill="#E07A3F"/>
<path d="M129.855 179.215C130.311 177.877 131.521 176.605 132.631 176.299C133.407 176.084 135.228 176.115 135.849 176.353C137.411 176.952 138.435 178.374 138.798 180.448C138.992 181.55 138.337 183.404 137.383 184.458C136.504 185.428 135.471 185.868 134.075 185.868C132.128 185.868 130.881 185.02 130.021 183.109C129.554 182.071 129.479 180.318 129.855 179.215Z" fill="#E07A3F"/>
<path d="M100.196 180.1C100.469 179.258 100.819 178.7 101.457 178.091C102.242 177.342 102.954 177.067 104.117 177.064C104.985 177.062 105.249 177.121 105.877 177.458C107.288 178.214 108.193 179.815 108.2 181.57C108.206 182.92 107.423 184.544 106.439 185.225C105.442 185.914 103.773 186.066 102.568 185.576C100.653 184.797 99.5217 182.185 100.196 180.1Z" fill="#E07A3F"/>
<path d="M113.812 104.282C113.978 103.9 114.315 103.38 114.561 103.125C114.962 102.712 115.215 102.593 116.298 102.309C116.664 102.213 117.876 102.504 118.496 102.836C120.012 103.648 120.905 106.095 120.215 107.546C119.628 108.78 119.103 109.248 117.809 109.687C117.038 109.948 116.538 109.927 115.522 109.59C114.886 109.379 113.826 108.166 113.639 107.436C113.398 106.491 113.477 105.051 113.812 104.282Z" fill="#E07A3F"/>
<path d="M115.983 166.551C116.196 165.904 116.606 165.185 116.982 164.801C117.511 164.261 118.16 164.064 119.481 164.041C121.226 164.011 121.741 164.344 122.379 165.913C123.211 167.957 122.404 170.146 120.477 171.072C119.58 171.503 119.222 171.515 118.309 171.143C117.415 170.78 116.447 169.669 116.071 168.576C115.768 167.696 115.749 167.262 115.983 166.551Z" fill="#E07A3F"/>
<path d="M130.125 152.599C130.462 150.835 131.052 149.721 132.479 148.154C134.308 146.145 135.923 145.459 138.82 145.459C141.614 145.459 143.722 146.611 145.617 149.174C146.708 150.649 147.265 151.995 147.688 154.172C148.019 155.877 148.788 158.162 149.312 158.999C149.721 159.653 150.821 160.857 151.429 161.317C151.763 161.57 152.32 161.813 152.834 161.93C155.448 162.525 157.475 161.748 159.091 159.533C160.085 158.17 160.512 157.29 161.104 155.388C161.563 153.913 161.58 153.793 161.58 151.916C161.581 149.887 161.515 149.551 160.682 147.334C160.305 146.328 158.283 143.392 156.654 141.482C154.958 139.496 153.661 137.113 153.034 134.835C152.533 133.01 152.461 130.312 152.856 128.093C153.423 124.906 154.36 122.931 156.335 120.759C158.44 118.444 160.897 116.934 163.587 116.303C163.973 116.213 164.663 116.049 165.12 115.94C166.349 115.645 167.766 115.557 168.634 115.72C172.455 116.441 173.859 116.996 176.131 118.683C179.058 120.857 181.081 124.21 181.856 128.169C182.071 129.268 182.078 132.947 181.867 133.932C181.622 135.072 181.322 136.205 181.222 136.362C181.173 136.439 181.028 136.814 180.899 137.196C180.114 139.511 178.062 141.921 174.191 145.072C170.899 147.751 169.925 148.781 169.232 150.319C167.506 154.152 167.931 158.065 170.39 160.965C171.128 161.835 172.028 162.427 173.169 162.791C174.359 163.171 175.116 163.176 176.355 162.812C178.565 162.164 180.178 160.884 181.827 158.471C182.959 156.814 182.879 156.961 184.445 153.652C185.187 152.087 186.035 150.368 186.329 149.833C186.624 149.299 186.959 148.68 187.075 148.458C187.191 148.236 187.552 147.665 187.876 147.189C188.201 146.713 188.656 146.02 188.887 145.648C189.351 144.9 190.759 142.965 192.157 141.154C193.151 139.865 196.105 136.687 197.123 135.81C197.475 135.507 197.994 135.039 198.277 134.769C200.22 132.922 203.339 130.682 206.074 129.169C207.632 128.308 209.182 127.544 209.372 127.544C209.458 127.544 209.583 127.487 209.65 127.418C209.759 127.306 212.33 126.295 212.965 126.116C213.106 126.076 213.882 125.826 214.69 125.561C215.498 125.296 216.418 125.012 216.734 124.931C218.505 124.475 219.106 124.333 220.439 124.06C221.247 123.893 222.109 123.731 222.355 123.698C225.707 123.249 227.444 123.052 228.935 122.951C229.918 122.884 230.856 122.794 231.019 122.751C231.534 122.615 241.788 122.674 242.924 122.82C243.521 122.896 244.397 122.959 244.871 122.96C245.344 122.96 246.839 123.112 248.192 123.298C249.546 123.483 250.883 123.665 251.164 123.701C253.753 124.04 259.987 125.4 262.087 126.083C262.614 126.255 263.477 126.535 264.004 126.708C265.124 127.073 268.584 128.319 269.087 128.539C269.277 128.621 269.548 128.742 269.689 128.807C269.829 128.871 270.404 129.117 270.966 129.352C272.74 130.094 277.275 132.499 279.015 133.619C281.027 134.914 283.753 137.02 285.111 138.328C285.838 139.027 289.021 142.491 289.466 143.066C290.854 144.861 292.307 147.218 293.118 148.989C294.186 151.321 294.29 151.591 294.913 153.652C295.731 156.356 296.188 159.147 296.291 162.064C296.358 163.977 296.23 165.396 295.677 168.829C295.342 170.91 293.914 174.642 292.726 176.541C290.857 179.529 288.343 182.302 285.978 183.986C283.095 186.039 281.025 186.906 277.163 187.681C275.948 187.924 273.323 187.999 272.012 187.826C270.669 187.65 269.082 187.335 268.411 187.111C264.843 185.92 262.927 184.747 260.901 182.509C259.429 180.885 258.9 180.063 258.381 178.599C257.641 176.511 257.987 174.487 259.241 173.568C259.464 173.405 260.038 173.097 260.516 172.884C262.372 172.057 263.245 171.511 264.051 170.674C265.519 169.151 266.29 167.537 266.683 165.17C266.823 164.325 266.967 163.581 267.004 163.516C267.041 163.451 266.9 162.576 266.692 161.571C266.141 158.915 265.385 157.377 263.748 155.588C261.557 153.19 258.497 151.228 254.997 149.976C252.824 149.199 251.272 148.845 247.779 148.332C244.085 147.789 237.788 148.551 234.3 149.964C231.36 151.154 228.311 153.266 226.443 155.406C225.413 156.587 224.552 157.964 223.808 159.624C223.551 160.197 223.285 160.785 223.217 160.931C223.149 161.077 222.927 161.912 222.724 162.786C222.397 164.196 222.355 164.616 222.355 166.504C222.355 168.405 222.395 168.8 222.729 170.204C223.371 172.908 224.027 174.347 225.785 176.914C227.602 179.567 230.599 182.314 234.428 184.837C236.1 185.938 240.782 188.464 242.493 189.188C242.853 189.34 243.399 189.588 243.706 189.74C244.45 190.106 246.572 191.01 246.689 191.01C246.74 191.01 246.963 191.098 247.184 191.205C247.406 191.313 248.248 191.662 249.056 191.982C249.864 192.302 250.813 192.682 251.164 192.827C251.516 192.972 252.55 193.376 253.464 193.725C255.782 194.612 256.851 195.035 257.297 195.244C257.507 195.342 258.398 195.717 259.277 196.076C261.054 196.803 262.529 197.44 263.301 197.813C263.582 197.949 264.186 198.231 264.643 198.438C265.521 198.838 270.995 201.762 271.861 202.295C272.142 202.468 272.717 202.821 273.138 203.08C277.487 205.751 282.111 209.602 285.981 213.775C287.084 214.965 288.264 216.344 288.603 216.841C288.942 217.337 289.486 218.087 289.812 218.507C290.784 219.76 292.736 222.658 293.026 223.277C293.174 223.595 293.498 224.198 293.745 224.618C294.321 225.595 295.572 228.213 296.01 229.357C296.196 229.844 296.454 230.492 296.584 230.798C296.897 231.536 297.476 233.264 297.476 233.458C297.476 233.543 297.557 233.782 297.655 233.989C297.754 234.195 297.989 234.999 298.178 235.775C298.367 236.551 298.602 237.499 298.701 237.881C299.07 239.317 299.547 242.301 299.789 244.685C300.007 246.851 300.072 251.286 299.908 252.949C299.658 255.504 299.403 257.532 299.21 258.504C299.112 259 298.978 259.719 298.911 260.101C298.717 261.224 298.022 263.912 297.655 264.961C297.469 265.496 297.213 266.246 297.087 266.628C296.552 268.255 295.446 270.766 294.088 273.433C293.434 274.717 292.621 276.013 291.564 277.456C290.986 278.245 290.112 279.444 289.622 280.12C288.869 281.159 285.871 284.403 284.317 285.859C283.874 286.275 283.675 286.446 281.698 288.117C280.252 289.339 277.161 291.42 275.011 292.618C272.534 294 267.84 296.075 266.112 296.553C265.901 296.611 265.585 296.723 265.409 296.801C265.233 296.879 264.86 297.01 264.579 297.091C264.298 297.172 263.665 297.358 263.173 297.504C260.349 298.345 256.022 299.238 253.592 299.482C252.889 299.553 252.027 299.677 251.675 299.759C250.726 299.981 239.544 300.094 237.563 299.902C233.058 299.464 229.93 298.91 226.316 297.908C223.505 297.129 223.857 297.246 220.567 295.991C219.545 295.601 217.556 294.713 217.443 294.597C217.376 294.529 217.25 294.472 217.163 294.472C216.904 294.472 214.885 293.387 212.901 292.181C209.384 290.043 206.245 287.521 203.83 284.892C201.344 282.185 199.572 279.877 198.606 278.085C198.297 277.512 197.889 276.794 197.699 276.488C197.328 275.891 196.453 274.062 196.105 273.155C195.988 272.849 195.843 272.475 195.784 272.322C195.724 272.169 195.618 271.857 195.548 271.627C195.478 271.398 195.27 270.773 195.086 270.239C194.419 268.308 193.929 266.066 193.718 263.989C193.532 262.16 193.528 256.581 193.711 255.518C194.34 251.878 195.268 249.137 196.816 246.352C198.816 242.755 202.926 239.12 206.513 237.774C208.731 236.942 210.803 236.566 213.179 236.563C214.21 236.562 215.331 236.619 215.67 236.69C216.009 236.761 216.66 236.892 217.117 236.981C221.864 237.902 226.853 242.191 228.108 246.428C228.563 247.965 228.68 249.434 228.441 250.589C228.209 251.703 227.881 252.296 227.323 252.61C226.777 252.917 225.225 253.472 224.403 253.654C222.976 253.97 221.054 255.384 220.2 256.746C219.685 257.568 218.874 259.287 218.616 260.101C218.495 260.483 218.309 261.348 218.201 262.023C218.029 263.11 218.027 263.373 218.193 264.314C218.634 266.823 219.501 268.477 221.269 270.187C222.906 271.77 225.775 273.518 228.079 274.336C236.479 277.316 247.332 276.516 254.361 272.397C257.625 270.484 259.704 268.476 261.676 265.331C262.277 264.374 263.247 262.06 263.577 260.795C264.36 257.799 264.4 253.091 263.665 250.31C263.414 249.357 262.849 247.649 262.724 247.463C262.672 247.387 262.412 246.887 262.145 246.352C261.283 244.622 260.472 243.464 259.126 242.041C256.598 239.367 254.144 237.65 250.014 235.665C248.787 235.075 246.332 234.151 244.649 233.646C244.087 233.477 243.512 233.287 243.371 233.224C243.035 233.073 240.843 232.491 239.474 232.189C238.877 232.058 238.044 231.868 237.622 231.768C237.2 231.668 236.482 231.52 236.025 231.44C235.568 231.36 234.696 231.198 234.086 231.081C233.476 230.963 232.805 230.867 232.594 230.867C232.384 230.867 231.934 230.809 231.595 230.737C230.313 230.465 229.262 230.299 227.529 230.093C225.812 229.889 224.995 229.801 221.908 229.489C221.135 229.411 219.956 229.25 219.289 229.131C218.07 228.913 215.872 228.592 214.562 228.439C214.175 228.394 213.572 228.3 213.221 228.23C212.869 228.159 211.921 227.97 211.113 227.808C206.426 226.873 205.049 226.511 201.85 225.371C198.819 224.29 196.415 223.142 193.802 221.524C191.758 220.259 189.397 218.44 188.027 217.075C187.286 216.337 187.079 216.418 186.828 217.542C186.624 218.457 186.387 223.003 186.423 225.312C186.433 225.961 186.466 231.43 186.496 237.465C186.529 244.139 186.607 249.089 186.696 250.103C186.776 251.019 186.899 252.761 186.968 253.975C187.038 255.189 187.155 256.595 187.229 257.1C187.303 257.605 187.42 258.455 187.49 258.99C187.658 260.283 188.432 264.299 188.747 265.517C189.279 267.568 189.381 267.918 189.842 269.266C190.104 270.03 190.4 270.905 190.502 271.211C190.77 272.018 192.407 275.653 192.941 276.627C195.139 280.634 197.505 283.713 200.573 286.561C201.304 287.239 201.85 287.852 201.85 287.993C201.85 288.259 201.799 288.293 200.07 289.195C198.924 289.792 197.776 290.6 195.526 292.392C193.812 293.758 191.381 295.028 189.421 295.581C188.037 295.972 184.898 296.217 183.773 296.023C183.316 295.943 182.482 295.808 181.92 295.723C178.436 295.192 174.762 292.807 172.186 289.403C171.629 288.667 170.742 287.218 170.742 287.044C170.742 287.009 170.601 286.651 170.429 286.248C169.938 285.097 169.503 283.68 168.609 280.307C167.841 277.411 167.117 275.952 165.763 274.573C164.773 273.566 163.717 272.947 162.99 272.947C162.33 272.947 161.6 273.507 160.343 274.978C159.438 276.037 157.853 277.372 157.163 277.657C156.448 277.953 154.342 278.25 153.64 278.154C151.73 277.895 150.47 277.09 149.651 275.608C148.869 274.191 148.574 272.996 148.584 271.28C148.594 269.777 148.801 268.854 149.441 267.461C149.935 266.386 152.3 264.207 153.233 263.966C153.412 263.919 153.616 263.836 153.686 263.781C153.756 263.726 154.389 263.479 155.091 263.233C157.885 262.254 159.011 261.073 159.899 258.192C160.266 257.001 160.276 256.901 160.234 254.714C160.201 252.96 160.117 252.076 159.857 250.716C159.517 248.941 159.295 247.963 159.116 247.463C159.062 247.31 158.833 246.529 158.608 245.727C157.707 242.52 155.2 236.694 153.617 234.131C153.429 233.825 152.855 232.857 152.342 231.978C151.83 231.1 151.06 229.881 150.632 229.27C149.753 228.016 147.29 225.329 146.177 224.409C145.174 223.581 143.494 222.728 142.079 222.328C140.562 221.9 139.832 221.553 138.86 220.799C137.467 219.719 136.687 217.908 136.787 215.988C136.833 215.094 136.906 214.818 137.242 214.248C137.462 213.876 137.807 213.398 138.01 213.188C138.447 212.733 139.926 212.119 140.587 212.119C141.055 212.119 141.958 212.389 142.715 212.756C143.151 212.967 144.778 214.662 146.075 216.257C147.249 217.701 148.069 218.288 149.609 218.785C150.576 219.097 152.214 218.735 153.875 217.841C155.225 217.115 156.367 215.868 157.065 214.358C158.045 212.237 158.025 210.904 156.985 209.006C156.354 207.853 156.147 207.666 153.399 205.76C152.707 205.28 151.999 204.747 151.827 204.576C151.655 204.404 151.301 204.088 151.04 203.874C150.422 203.366 148.784 201.036 148.278 199.946C147.693 198.685 147.107 196.743 147.107 196.069C147.107 195.744 147.02 194.989 146.915 194.39C146.692 193.126 146.672 192.103 146.849 191.018C146.918 190.594 147.06 189.621 147.165 188.857C147.401 187.142 147.568 186.349 148.189 183.997C148.906 181.285 149.274 178.853 149.271 176.845C149.266 173.335 148.388 170.572 146.616 168.493C145.049 166.652 143.388 165.73 140.527 165.11C136.553 164.249 134.69 163.437 132.961 161.811C131.142 160.101 130.458 158.722 129.992 155.816C129.814 154.713 129.84 154.093 130.125 152.599ZM291.649 248.018C290.573 244.997 288.481 240.622 287.265 238.853C287.003 238.471 286.62 237.904 286.415 237.594C284.935 235.357 282.444 232.482 280.081 230.285C277.177 227.585 271.847 224.102 267.964 222.366C267.437 222.13 266.949 221.891 266.878 221.833C266.446 221.482 260.453 219.143 257.999 218.368C257.472 218.202 256.899 218.004 256.726 217.928C256.41 217.792 254.497 217.198 253.655 216.976C253.41 216.911 252.806 216.729 252.314 216.571C251.822 216.413 250.988 216.164 250.462 216.018C248.05 215.353 240.328 213.225 239.411 212.974C238.848 212.82 237.986 212.593 237.494 212.469C237.002 212.345 236.456 212.192 236.281 212.129C236.105 212.065 235.731 211.944 235.45 211.86C234.422 211.554 231.607 210.702 231.234 210.585C231.023 210.519 230.535 210.372 230.148 210.259C229.762 210.146 229.13 209.953 228.743 209.83C228.356 209.707 227.753 209.518 227.402 209.411C225.749 208.908 221.837 207.437 219.161 206.313C213.148 203.788 208.604 201.238 204.086 197.854C203.636 197.517 200.969 195.287 200.892 195.183C200.857 195.135 200.397 194.715 199.87 194.248C198.417 192.961 194.793 188.892 193.726 187.349C190.734 183.023 188.528 177.888 187.662 173.234C187.112 170.283 187.017 169.591 186.838 167.262C186.765 166.307 186.68 165.449 186.649 165.355C186.539 165.019 186.242 165.342 185.754 166.33C184.861 168.138 183.585 169.997 182.658 170.84C182.003 171.437 180.672 172.198 179.94 172.393C175.695 173.529 173.216 175.122 172.146 177.402C172.015 177.681 171.751 178.373 171.56 178.939C171.23 179.914 171.211 180.101 171.209 182.404C171.207 184.702 171.227 184.906 171.565 186.015C172.09 187.742 172.472 188.473 173.349 189.426C174.156 190.304 174.914 190.797 176.363 191.389C177.053 191.672 177.548 191.748 179.301 191.844C180.461 191.907 181.647 191.925 181.938 191.884C182.644 191.784 183.176 192.131 183.457 192.874C183.574 193.185 183.751 193.646 183.849 193.896C183.948 194.147 184.028 194.45 184.028 194.571C184.028 194.818 185.035 198.088 185.176 198.301C185.227 198.377 185.301 198.565 185.341 198.718C186.173 201.94 189.736 208.043 192.178 210.43C195.079 213.267 197.256 214.89 200.381 216.548C204.631 218.802 208.325 220.019 214.754 221.283C217.074 221.74 222.361 222.407 224.655 222.534C229.023 222.775 231.53 222.959 232.32 223.098C232.777 223.178 234.904 223.308 237.047 223.386C242.01 223.567 246.14 223.918 248.481 224.357C248.903 224.436 249.88 224.592 250.653 224.704C253.632 225.136 255.057 225.408 257.808 226.074C258.299 226.193 258.932 226.344 259.213 226.41C260.707 226.758 263.602 227.661 265.728 228.441C267.993 229.272 268.214 229.362 269.783 230.091C270.538 230.442 271.186 230.728 271.224 230.728C271.262 230.728 272.34 231.286 273.621 231.967C279.271 234.972 283.855 238.617 287.284 242.829C288.892 244.806 290.402 247.139 290.999 248.57C291.306 249.306 291.842 250.057 291.991 249.957C292.198 249.818 292.108 249.307 291.649 248.018Z" fill="#E07A3F"/>
</svg>
