<svg width="400" height="400" viewBox="0 0 400 400" fill="none" xmlns="http://www.w3.org/2000/svg">
<path d="M110.758 144.96C111.112 143.196 111.733 142.082 113.234 140.515C115.158 138.506 116.856 137.82 119.903 137.82C122.842 137.82 125.06 138.972 127.053 141.535C128.2 143.01 128.787 144.356 129.231 146.533C129.579 148.238 130.388 150.523 130.939 151.36C131.37 152.014 132.527 153.218 133.166 153.678C133.517 153.931 134.103 154.174 134.644 154.291C137.393 154.886 139.526 154.109 141.225 151.894C142.271 150.531 142.72 149.651 143.343 147.749C143.826 146.274 143.843 146.154 143.844 144.277C143.844 142.248 143.775 141.912 142.899 139.695C142.502 138.689 140.376 135.753 138.662 133.843C136.878 131.857 135.514 129.474 134.855 127.196C134.327 125.371 134.252 122.673 134.667 120.454C135.263 117.267 136.249 115.292 138.327 113.12C140.541 110.805 143.125 109.295 145.954 108.664C146.361 108.574 147.086 108.41 147.567 108.301C148.859 108.006 150.35 107.918 151.262 108.081C155.282 108.802 156.759 109.357 159.148 111.044C162.227 113.218 164.355 116.571 165.17 120.53C165.396 121.629 165.404 125.308 165.181 126.293C164.924 127.433 164.608 128.566 164.503 128.723C164.452 128.8 164.299 129.175 164.163 129.557C163.338 131.872 161.18 134.282 157.108 137.433C153.645 140.112 152.621 141.142 151.892 142.68C150.076 146.513 150.523 150.426 153.109 153.326C153.886 154.197 154.833 154.788 156.033 155.152C157.284 155.532 158.081 155.537 159.384 155.173C161.709 154.525 163.405 153.245 165.139 150.832C166.33 149.175 166.246 149.322 167.894 146.013C168.674 144.448 169.565 142.729 169.875 142.194C170.185 141.66 170.538 141.041 170.66 140.819C170.781 140.598 171.161 140.026 171.502 139.55C171.844 139.074 172.322 138.381 172.565 138.009C173.053 137.261 174.534 135.326 176.004 133.515C177.05 132.226 180.157 129.048 181.228 128.171C181.598 127.868 182.144 127.4 182.442 127.13C184.485 125.283 187.766 123.043 190.643 121.53C192.282 120.669 193.912 119.905 194.112 119.905C194.202 119.905 194.334 119.848 194.404 119.779C194.519 119.667 197.223 118.657 197.891 118.477C198.039 118.437 198.855 118.187 199.705 117.922C200.555 117.657 201.523 117.373 201.855 117.292C203.718 116.836 204.35 116.694 205.752 116.421C206.602 116.255 207.509 116.092 207.768 116.059C211.294 115.61 213.121 115.413 214.688 115.312C215.723 115.245 216.71 115.155 216.881 115.112C217.422 114.976 228.208 115.035 229.403 115.181C230.031 115.257 230.952 115.32 231.45 115.321C231.948 115.321 233.521 115.473 234.944 115.659C236.368 115.844 237.774 116.026 238.07 116.062C240.793 116.401 247.35 117.761 249.559 118.444C250.114 118.616 251.021 118.896 251.575 119.069C252.754 119.435 256.392 120.68 256.922 120.9C257.122 120.982 257.407 121.103 257.555 121.168C257.703 121.232 258.307 121.478 258.899 121.713C260.764 122.455 265.534 124.86 267.364 125.98C269.48 127.275 272.348 129.381 273.777 130.689C274.541 131.388 277.889 134.852 278.356 135.427C279.817 137.222 281.345 139.579 282.198 141.35C283.321 143.683 283.431 143.952 284.087 146.013C284.947 148.717 285.428 151.508 285.535 154.425C285.606 156.338 285.471 157.757 284.89 161.19C284.538 163.271 283.035 167.003 281.786 168.902C279.82 171.89 277.175 174.663 274.688 176.347C271.656 178.4 269.479 179.267 265.416 180.042C264.138 180.285 261.377 180.36 259.998 180.187C258.585 180.011 256.916 179.696 256.211 179.472C252.458 178.281 250.442 177.108 248.311 174.87C246.763 173.246 246.206 172.424 245.661 170.96C244.883 168.872 245.247 166.848 246.566 165.929C246.8 165.766 247.404 165.458 247.906 165.245C249.858 164.418 250.777 163.872 251.625 163.035C253.168 161.512 253.98 159.898 254.393 157.531C254.54 156.686 254.692 155.942 254.731 155.877C254.769 155.812 254.622 154.937 254.403 153.932C253.823 151.276 253.027 149.738 251.307 147.949C249.001 145.551 245.783 143.589 242.101 142.337C239.816 141.56 238.184 141.206 234.509 140.693C230.624 140.15 224.001 140.912 220.332 142.325C217.239 143.515 214.032 145.627 212.068 147.767C210.984 148.948 210.079 150.325 209.296 151.985C209.026 152.558 208.747 153.146 208.675 153.292C208.603 153.438 208.37 154.273 208.156 155.147C207.812 156.557 207.768 156.977 207.768 158.865C207.768 160.766 207.81 161.161 208.161 162.565C208.837 165.269 209.526 166.708 211.375 169.275C213.286 171.928 216.439 174.675 220.467 177.198C222.225 178.299 227.15 180.825 228.949 181.549C229.328 181.701 229.903 181.949 230.226 182.101C231.008 182.467 233.24 183.371 233.363 183.371C233.417 183.371 233.651 183.459 233.884 183.567C234.117 183.674 235.003 184.023 235.853 184.343C236.703 184.663 237.701 185.043 238.07 185.188C238.44 185.333 239.528 185.737 240.489 186.086C242.927 186.973 244.051 187.396 244.52 187.605C244.742 187.703 245.679 188.078 246.603 188.437C248.472 189.164 250.024 189.801 250.836 190.175C251.132 190.31 251.766 190.592 252.247 190.799C253.171 191.199 258.928 194.123 259.839 194.656C260.135 194.829 260.74 195.182 261.183 195.441C265.757 198.112 270.621 201.963 274.692 206.136C275.852 207.326 277.093 208.705 277.449 209.202C277.806 209.699 278.378 210.448 278.721 210.868C279.743 212.121 281.797 215.019 282.101 215.638C282.257 215.956 282.598 216.559 282.858 216.979C283.464 217.956 284.779 220.574 285.24 221.718C285.436 222.205 285.707 222.853 285.844 223.159C286.173 223.897 286.782 225.625 286.782 225.819C286.782 225.904 286.867 226.143 286.971 226.35C287.074 226.556 287.322 227.36 287.52 228.136C287.719 228.912 287.967 229.86 288.07 230.242C288.459 231.678 288.961 234.662 289.214 237.046C289.444 239.212 289.512 243.647 289.34 245.31C289.077 247.865 288.809 249.893 288.606 250.865C288.503 251.361 288.361 252.08 288.292 252.462C288.087 253.585 287.357 256.273 286.971 257.322C286.774 257.857 286.505 258.607 286.373 258.989C285.81 260.616 284.646 263.127 283.218 265.794C282.53 267.078 281.676 268.374 280.563 269.817C279.956 270.606 279.037 271.805 278.521 272.481C277.729 273.52 274.575 276.764 272.941 278.22C272.475 278.636 272.265 278.807 270.186 280.478C268.665 281.7 265.415 283.781 263.153 284.979C260.548 286.361 255.61 288.436 253.792 288.914C253.571 288.972 253.238 289.084 253.053 289.162C252.868 289.24 252.475 289.371 252.18 289.452C251.884 289.533 251.219 289.719 250.702 289.865C247.731 290.706 243.179 291.599 240.623 291.843C239.884 291.914 238.977 292.039 238.608 292.12C237.609 292.342 225.848 292.455 223.764 292.263C219.026 291.825 215.735 291.271 211.934 290.269C208.977 289.49 209.348 289.607 205.887 288.352C204.812 287.962 202.72 287.074 202.601 286.958C202.531 286.89 202.398 286.833 202.307 286.833C202.034 286.833 199.911 285.748 197.824 284.542C194.125 282.404 190.822 279.882 188.283 277.253C185.668 274.546 183.804 272.238 182.788 270.446C182.463 269.873 182.034 269.155 181.834 268.849C181.444 268.252 180.524 266.423 180.158 265.516C180.035 265.21 179.882 264.836 179.819 264.683C179.757 264.53 179.645 264.218 179.572 263.988C179.498 263.759 179.279 263.134 179.085 262.6C178.384 260.669 177.868 258.427 177.647 256.35C177.451 254.521 177.447 248.942 177.64 247.879C178.301 244.239 179.277 241.498 180.906 238.713C183.009 235.116 187.332 231.481 191.105 230.135C193.438 229.303 195.617 228.927 198.116 228.924C199.201 228.923 200.38 228.98 200.737 229.051C201.093 229.123 201.778 229.253 202.259 229.342C207.252 230.263 212.499 234.552 213.819 238.789C214.298 240.326 214.421 241.795 214.169 242.95C213.925 244.064 213.581 244.657 212.993 244.971C212.419 245.278 210.787 245.833 209.922 246.015C208.421 246.331 206.399 247.745 205.502 249.107C204.96 249.929 204.106 251.648 203.835 252.462C203.708 252.844 203.512 253.709 203.399 254.384C203.217 255.471 203.216 255.734 203.39 256.675C203.854 259.184 204.765 260.838 206.626 262.548C208.347 264.131 211.365 265.879 213.788 266.697C222.624 269.677 234.04 268.877 241.432 264.758C244.866 262.845 247.053 260.837 249.127 257.692C249.759 256.735 250.779 254.421 251.126 253.156C251.95 250.16 251.991 245.452 251.219 242.671C250.954 241.718 250.36 240.01 250.229 239.824C250.175 239.748 249.901 239.248 249.62 238.713C248.713 236.983 247.86 235.825 246.444 234.402C243.785 231.728 241.204 230.011 236.861 228.026C235.57 227.436 232.987 226.512 231.217 226.007C230.626 225.838 230.021 225.648 229.873 225.585C229.519 225.434 227.214 224.852 225.775 224.55C225.146 224.419 224.27 224.229 223.826 224.129C223.383 224.029 222.627 223.881 222.146 223.801C221.666 223.721 220.748 223.559 220.107 223.442C219.465 223.324 218.759 223.228 218.538 223.228C218.317 223.228 217.844 223.17 217.487 223.098C216.138 222.826 215.033 222.66 213.21 222.454C211.404 222.25 210.545 222.162 207.298 221.85C206.485 221.772 205.245 221.611 204.543 221.492C203.261 221.274 200.949 220.953 199.571 220.8C199.164 220.755 198.53 220.661 198.16 220.591C197.79 220.52 196.793 220.331 195.943 220.169C191.014 219.234 189.565 218.872 186.2 217.732C183.012 216.651 180.484 215.503 177.735 213.885C175.585 212.62 173.102 210.801 171.661 209.436C170.882 208.698 170.664 208.779 170.4 209.903C170.185 210.818 169.936 215.364 169.974 217.673C169.985 218.322 170.019 223.791 170.05 229.826C170.085 236.5 170.167 241.451 170.261 242.464C170.345 243.38 170.474 245.122 170.547 246.336C170.62 247.55 170.744 248.956 170.821 249.461C170.899 249.966 171.023 250.816 171.096 251.351C171.273 252.644 172.087 256.66 172.418 257.878C172.978 259.929 173.085 260.279 173.57 261.628C173.845 262.391 174.157 263.266 174.264 263.572C174.546 264.379 176.268 268.014 176.83 268.988C179.142 272.995 181.63 276.074 184.857 278.922C185.626 279.6 186.2 280.213 186.2 280.354C186.2 280.62 186.147 280.654 184.328 281.556C183.123 282.153 181.915 282.961 179.549 284.753C177.745 286.119 175.188 287.389 173.127 287.942C171.672 288.333 168.369 288.578 167.186 288.384C166.705 288.304 165.829 288.169 165.238 288.084C161.573 287.553 157.709 285.168 154.999 281.764C154.413 281.028 153.48 279.579 153.48 279.405C153.48 279.37 153.331 279.012 153.151 278.609C152.634 277.459 152.177 276.041 151.237 272.668C150.429 269.772 149.667 268.313 148.243 266.934C147.202 265.927 146.091 265.308 145.326 265.308C144.632 265.308 143.864 265.868 142.542 267.339C141.59 268.398 139.924 269.733 139.197 270.018C138.445 270.314 136.23 270.611 135.492 270.515C133.483 270.256 132.157 269.451 131.296 267.969C130.473 266.552 130.163 265.357 130.174 263.641C130.184 262.138 130.402 261.215 131.075 259.822C131.595 258.747 134.082 256.568 135.064 256.327C135.252 256.28 135.466 256.197 135.54 256.142C135.614 256.087 136.279 255.84 137.018 255.594C139.957 254.615 141.142 253.434 142.075 250.553C142.462 249.362 142.472 249.262 142.428 247.075C142.392 245.321 142.305 244.437 142.031 243.077C141.673 241.302 141.439 240.324 141.252 239.824C141.194 239.671 140.954 238.89 140.717 238.088C139.77 234.881 137.133 229.055 135.468 226.492C135.269 226.186 134.666 225.218 134.127 224.339C133.588 223.461 132.778 222.242 132.327 221.631C131.403 220.377 128.813 217.69 127.642 216.77C126.587 215.942 124.82 215.089 123.331 214.689C121.736 214.261 120.968 213.914 119.945 213.16C118.481 212.08 117.66 210.269 117.765 208.349C117.814 207.455 117.89 207.179 118.244 206.609C118.476 206.237 118.839 205.759 119.051 205.549C119.511 205.094 121.067 204.48 121.762 204.48C122.255 204.48 123.204 204.75 124.001 205.117C124.46 205.328 126.17 207.023 127.534 208.618C128.77 210.062 129.632 210.649 131.252 211.146C132.269 211.458 133.992 211.096 135.739 210.202C137.159 209.476 138.36 208.229 139.094 206.719C140.125 204.598 140.104 203.265 139.011 201.367C138.347 200.214 138.129 200.027 135.239 198.121C134.51 197.641 133.766 197.108 133.585 196.937C133.404 196.765 133.031 196.449 132.757 196.235C132.107 195.727 130.384 193.397 129.852 192.307C129.237 191.046 128.62 189.104 128.62 188.43C128.62 188.105 128.529 187.35 128.418 186.751C128.184 185.487 128.163 184.464 128.349 183.379C128.421 182.955 128.571 181.982 128.681 181.218C128.929 179.503 129.105 178.71 129.759 176.358C130.513 173.646 130.899 171.214 130.896 169.206C130.891 165.696 129.967 162.933 128.104 160.854C126.455 159.013 124.709 158.091 121.699 157.471C117.519 156.61 115.56 155.798 113.741 154.172C111.827 152.462 111.109 151.083 110.618 148.177C110.431 147.074 110.458 146.454 110.758 144.96ZM280.653 240.38C279.521 237.358 277.32 232.983 276.042 231.214C275.766 230.832 275.364 230.265 275.148 229.955C273.591 227.718 270.971 224.843 268.486 222.646C265.431 219.946 259.825 216.463 255.741 214.727C255.187 214.491 254.672 214.252 254.599 214.194C254.144 213.843 247.841 211.504 245.259 210.729C244.705 210.563 244.102 210.365 243.92 210.289C243.588 210.153 241.575 209.559 240.69 209.337C240.432 209.272 239.797 209.09 239.279 208.932C238.762 208.774 237.885 208.525 237.331 208.379C234.795 207.714 226.673 205.586 225.707 205.335C225.116 205.181 224.209 204.954 223.692 204.83C223.174 204.706 222.6 204.553 222.415 204.49C222.23 204.426 221.837 204.305 221.542 204.221C220.46 203.915 217.499 203.063 217.107 202.946C216.885 202.88 216.372 202.733 215.965 202.62C215.558 202.507 214.893 202.314 214.487 202.191C214.08 202.068 213.445 201.88 213.076 201.772C211.338 201.269 207.223 199.798 204.409 198.674C198.084 196.149 193.304 193.599 188.552 190.215C188.079 189.878 185.274 187.648 185.193 187.544C185.156 187.496 184.672 187.076 184.118 186.609C182.589 185.322 178.777 181.253 177.655 179.71C174.509 175.384 172.188 170.249 171.277 165.595C170.699 162.644 170.598 161.952 170.41 159.623C170.333 158.668 170.244 157.81 170.211 157.716C170.096 157.38 169.783 157.703 169.27 158.691C168.331 160.499 166.988 162.358 166.014 163.201C165.325 163.798 163.924 164.559 163.155 164.754C158.689 165.89 156.082 167.483 154.957 169.763C154.819 170.042 154.542 170.734 154.34 171.3C153.993 172.275 153.973 172.462 153.971 174.765C153.969 177.063 153.99 177.267 154.345 178.376C154.897 180.103 155.3 180.834 156.222 181.787C157.071 182.665 157.868 183.158 159.392 183.75C160.119 184.033 160.639 184.109 162.483 184.205C163.702 184.268 164.951 184.286 165.256 184.245C165.999 184.145 166.558 184.492 166.854 185.235C166.977 185.546 167.163 186.007 167.267 186.257C167.37 186.508 167.455 186.811 167.455 186.932C167.455 187.179 168.513 190.449 168.662 190.662C168.716 190.738 168.794 190.926 168.835 191.079C169.711 194.301 173.458 200.404 176.026 202.791C179.078 205.628 181.368 207.252 184.655 208.909C189.125 211.163 193.011 212.38 199.773 213.645C202.214 214.101 207.774 214.768 210.187 214.895C214.781 215.136 217.419 215.32 218.249 215.459C218.73 215.539 220.967 215.669 223.221 215.747C228.442 215.928 232.785 216.279 235.248 216.718C235.692 216.797 236.72 216.953 237.533 217.065C240.666 217.497 242.165 217.769 245.058 218.435C245.575 218.554 246.24 218.705 246.536 218.771C248.107 219.119 251.153 220.022 253.389 220.802C255.771 221.633 256.003 221.723 257.654 222.452C258.448 222.803 259.13 223.089 259.17 223.089C259.209 223.089 260.343 223.647 261.69 224.328C267.633 227.334 272.455 230.978 276.061 235.19C277.753 237.167 279.341 239.5 279.969 240.931C280.292 241.667 280.856 242.418 281.013 242.318C281.23 242.179 281.136 241.668 280.653 240.38Z" fill="#E07A3F"/>
</svg>
